<?xml version="1.0" encoding="utf-8"?>
<!-- Generator: Adobe Illustrator 24.3.0, SVG Export Plug-In . SVG Version: 6.00 Build 0)  -->
<svg version="1.1" id="Layer_1" xmlns="http://www.w3.org/2000/svg" xmlns:xlink="http://www.w3.org/1999/xlink" x="0px" y="0px"
	 viewBox="0 0 321.5 80.2" style="enable-background:new 0 0 321.5 80.2;" xml:space="preserve">
<style type="text/css">
	.st0{fill:#1B144D;}
	.st1{fill:url(#SVGID_1_);}
	.st2{fill:url(#SVGID_2_);}
	.st3{fill:#1D184D;}
</style>
<g>
	<path class="st0" d="M29.3,68.8L36,57.1c0,0,0,0,0,0C31.7,64.5,29.3,68.8,29.3,68.8z"/>
	<path class="st0" d="M39.5,50.9C39.5,50.9,39.5,50.9,39.5,50.9l11-19.1c0,0,0,0,0,0C46.3,39,42.6,45.5,39.5,50.9z"/>
	<path class="st0" d="M50.5,19.4c-9.1,15.8-15,26.1-24.8,43.2h-3.6l-3.6,6.2c4.7,0,9.5,0,10.8,0c0,0,2.4-4.3,6.7-11.7c0,0,0,0,0,0
		l3.5-6.2c0,0,0,0,0,0c3.1-5.4,6.8-11.9,11-19.2c0,0,0,0,0,0l3.6-6.2C52,22,50.7,19.6,50.5,19.4z"/>
	<path class="st0" d="M18.6,62.6c0,0,27.1-47.2,28.3-49.4h-7.1c0,0-29.5,51.5-31.9,55.6c1.3,0,5.9,0,10.5,0l3.6-6.2H18.6z"/>
	<path class="st0" d="M79,68.8c0-0.1-17.3-29.9-24.9-43.2l-3.6,6.2c1.6,2.8,16.3,28.2,17.8,30.8h-3.5l3.6,6.2
		C73.2,68.8,77.8,68.8,79,68.8z"/>
	<linearGradient id="SVGID_1_" gradientUnits="userSpaceOnUse" x1="68.5069" y1="56.4244" x2="46.9763" y2="56.4244">
		<stop  offset="0" style="stop-color:#1B144D"/>
		<stop  offset="1" style="stop-color:#8DBAE4"/>
	</linearGradient>
	<path class="st1" d="M50.5,44.1L47,50.2c0.9,1.5,9.9,17,10.8,18.5c1.3,0,6,0,10.8,0l-3.6-6.2h-3.6C60.4,61.1,51.4,45.6,50.5,44.1z"
		/>
	<linearGradient id="SVGID_2_" gradientUnits="userSpaceOnUse" x1="35.9901" y1="59.8554" x2="49.8955" y2="59.8554">
		<stop  offset="0.1143" style="stop-color:#1B144D"/>
		<stop  offset="0.133" style="stop-color:#1E1A51"/>
		<stop  offset="0.2597" style="stop-color:#373D6C"/>
		<stop  offset="0.3877" style="stop-color:#4E5C88"/>
		<stop  offset="0.5146" style="stop-color:#6279A3"/>
		<stop  offset="0.6401" style="stop-color:#7392BB"/>
		<stop  offset="0.7637" style="stop-color:#80A6CF"/>
		<stop  offset="0.8847" style="stop-color:#89B4DD"/>
		<stop  offset="1" style="stop-color:#8DBAE4"/>
	</linearGradient>
	<path class="st2" d="M42.8,68.8c0.9,0,3.8,0,7.1,0c-2.8-4.9-7.4-12.8-10.4-17.9L36,57.1C38.6,61.6,42.2,67.8,42.8,68.8z"/>
	<path class="st0" d="M35.8,57.1c-4.3,7.4-6.7,11.7-6.7,11.7L35.8,57.1C35.8,57.1,35.8,57.1,35.8,57.1z"/>
	<path class="st0" d="M39.3,50.9C39.3,50.9,39.3,50.9,39.3,50.9l11-19.1c0,0,0,0,0,0C46.1,39,42.4,45.5,39.3,50.9z"/>
</g>
<path class="st3" d="M104.9,31.4h2.8l9.9,23.2H114l-2.3-5.7h-11l-2.3,5.7h-3.7L104.9,31.4z M110.5,46.1l-4.3-10.6h-0.1l-4.4,10.6
	H110.5z"/>
<path class="st3" d="M140.3,31.4h8.1c1,0,1.9,0.1,2.8,0.4c0.9,0.2,1.6,0.6,2.2,1.1c0.6,0.5,1.1,1.1,1.5,1.8c0.4,0.7,0.5,1.6,0.5,2.6
	c0,1.3-0.4,2.4-1.1,3.3c-0.7,0.8-1.7,1.5-2.9,1.9v0.1c0.7,0,1.4,0.2,2,0.5c0.6,0.3,1.1,0.7,1.6,1.2c0.4,0.5,0.8,1.1,1.1,1.8
	c0.3,0.7,0.4,1.4,0.4,2.2c0,1-0.2,2-0.6,2.8c-0.4,0.8-1,1.5-1.8,2c-0.7,0.5-1.6,1-2.6,1.2c-1,0.3-2,0.4-3.2,0.4h-8V31.4z M143.5,41
	h4.3c0.6,0,1.1-0.1,1.7-0.2c0.5-0.1,1-0.3,1.4-0.6c0.4-0.3,0.7-0.6,0.9-1.1c0.2-0.4,0.3-1,0.3-1.6c0-0.9-0.3-1.7-0.9-2.4
	c-0.6-0.7-1.5-1-2.8-1h-4.9V41z M143.5,51.8h4.6c0.5,0,1,0,1.6-0.1c0.6-0.1,1.1-0.3,1.6-0.6c0.5-0.3,0.9-0.7,1.3-1.2
	c0.3-0.5,0.5-1.2,0.5-2c0-1.4-0.4-2.4-1.3-3.1c-0.9-0.7-2.1-1-3.6-1h-4.6V51.8z"/>
<path class="st3" d="M191.2,55.1c-1.8,0-3.4-0.3-4.9-0.9c-1.5-0.6-2.8-1.5-3.8-2.6c-1.1-1.1-1.9-2.4-2.5-3.9
	c-0.6-1.5-0.9-3.1-0.9-4.8s0.3-3.3,0.9-4.8c0.6-1.5,1.4-2.8,2.5-3.9c1.1-1.1,2.3-1.9,3.8-2.6c1.5-0.6,3.1-0.9,4.9-0.9
	c1.8,0,3.4,0.3,4.9,0.9c1.5,0.6,2.8,1.5,3.8,2.6c1.1,1.1,1.9,2.4,2.5,3.9c0.6,1.5,0.9,3.1,0.9,4.8s-0.3,3.3-0.9,4.8
	c-0.6,1.5-1.4,2.8-2.5,3.9c-1.1,1.1-2.3,1.9-3.8,2.6C194.6,54.8,193,55.1,191.2,55.1z M191.2,52.2c1.3,0,2.5-0.2,3.6-0.7
	c1.1-0.5,2-1.2,2.8-2c0.8-0.8,1.4-1.8,1.8-2.9c0.4-1.1,0.6-2.3,0.6-3.6s-0.2-2.5-0.6-3.6c-0.4-1.1-1-2.1-1.8-2.9
	c-0.8-0.8-1.7-1.5-2.8-2c-1.1-0.5-2.3-0.7-3.6-0.7s-2.5,0.2-3.6,0.7c-1.1,0.5-2,1.2-2.8,2c-0.8,0.8-1.4,1.8-1.8,2.9
	c-0.4,1.1-0.6,2.3-0.6,3.6s0.2,2.5,0.6,3.6c0.4,1.1,1,2.1,1.8,2.9c0.8,0.8,1.7,1.5,2.8,2C188.7,51.9,189.9,52.2,191.2,52.2z"/>
<path class="st3" d="M230.2,31.4v14.2c0,0.7,0.1,1.5,0.3,2.2c0.2,0.8,0.5,1.5,1,2.1c0.5,0.7,1.1,1.2,1.8,1.6
	c0.7,0.4,1.7,0.6,2.8,0.6c1.1,0,2-0.2,2.8-0.6c0.7-0.4,1.3-0.9,1.8-1.6c0.5-0.7,0.8-1.4,1-2.1c0.2-0.8,0.3-1.5,0.3-2.2V31.4h3.1
	v14.7c0,1.4-0.2,2.6-0.7,3.7c-0.5,1.1-1.1,2.1-1.9,2.9c-0.8,0.8-1.8,1.4-2.8,1.9c-1.1,0.4-2.3,0.7-3.5,0.7s-2.4-0.2-3.5-0.7
	c-1.1-0.4-2-1.1-2.8-1.9c-0.8-0.8-1.4-1.8-1.9-2.9c-0.5-1.1-0.7-2.3-0.7-3.7V31.4H230.2z"/>
<path class="st3" d="M275,34.3h-7.5v-2.9h18.1v2.9h-7.5v20.2H275V34.3z"/>
<g>
	<path class="st3" d="M301.7,25.2h-2.6v6.7h-1.2v-6.7h-2.6v-1.1h6.4V25.2z"/>
	<path class="st3" d="M311.4,31.9v-5.6l-2.3,4.3h-0.7l-2.3-4.3v5.6h-1.2v-7.8h1.3l2.6,4.8l2.6-4.8h1.3v7.8H311.4z"/>
</g>
</svg>
